<?xml version="1.0" standalone="no"?>
<!DOCTYPE svg PUBLIC "-//W3C//DTD SVG 20010904//EN"
 "http://www.w3.org/TR/2001/REC-SVG-20010904/DTD/svg10.dtd">
<svg version="1.0" xmlns="http://www.w3.org/2000/svg"
 width="301.000000pt" height="167.000000pt" viewBox="0 0 301.000000 167.000000"
 preserveAspectRatio="xMidYMid meet">

<g transform="translate(0.000000,167.000000) scale(0.100000,-0.100000)"
fill="#000000" stroke="none">
<path d="M1453 1659 c-68 -20 -161 -159 -200 -300 -15 -53 -19 -60 -37 -54
-48 14 -174 34 -218 35 -75 0 -142 -18 -181 -51 -96 -79 -64 -216 91 -393 58
-66 58 -57 -10 -134 -181 -202 -177 -384 9 -422 67 -14 175 -8 265 16 33 8 61
14 62 12 1 -2 10 -30 20 -63 85 -280 248 -381 380 -234 50 56 97 147 123 240
15 53 19 60 37 54 48 -14 174 -34 218 -35 77 0 146 19 184 52 92 81 59 217
-94 392 l-52 59 22 28 c129 155 160 206 173 286 19 117 -74 194 -233 193 -43
-1 -170 -21 -217 -35 -17 -5 -22 2 -38 55 -43 150 -132 279 -205 300 -43 12
-56 11 -99 -1z m96 -123 c42 -22 90 -82 127 -160 39 -80 41 -94 17 -103 -10
-3 -56 -21 -103 -39 l-84 -34 -103 41 c-57 23 -103 47 -103 53 0 22 67 151 96
185 32 39 81 71 107 71 10 0 31 -7 46 -14z m-381 -285 c23 -5 45 -10 47 -13 4
-4 -24 -222 -29 -224 0 0 -40 -30 -88 -67 -48 -37 -89 -67 -91 -67 -2 0 -22
26 -44 58 -108 153 -118 235 -38 288 48 31 153 42 243 25z m899 -15 c39 -20
73 -62 73 -90 0 -54 -52 -161 -117 -241 l-22 -27 -88 68 c-48 37 -89 68 -89
68 -7 3 -32 222 -26 227 23 23 223 19 269 -5z m-627 -66 c0 -6 -168 -103 -186
-108 -9 -2 -8 17 2 70 8 40 16 78 18 85 4 8 28 4 85 -15 45 -14 81 -29 81 -32z
m313 -33 c11 -56 12 -77 3 -75 -18 5 -186 103 -186 108 0 9 154 58 162 51 4
-3 13 -41 21 -84z m-164 -34 c36 -20 94 -54 129 -76 l62 -39 -2 -156 -3 -155
-115 -69 c-63 -38 -126 -71 -139 -75 -28 -7 -77 16 -210 98 l-81 50 0 154 0
154 73 44 c121 75 181 107 201 107 11 0 49 -16 85 -37z m-404 -268 c0 -63 -2
-115 -4 -115 -2 0 -33 26 -68 57 l-65 57 63 57 c35 32 66 58 69 59 3 0 5 -52
5 -115z m713 57 l64 -58 -65 -57 c-36 -31 -67 -57 -69 -57 -1 0 -3 52 -3 115
0 63 2 115 5 115 3 -1 34 -27 68 -58z m-800 -168 c48 -37 88 -70 89 -73 1 -3
9 -53 18 -110 12 -82 12 -106 3 -112 -21 -13 -135 -22 -191 -15 -60 8 -108 33
-133 71 -30 47 -5 128 79 248 22 31 42 57 44 57 2 0 43 -30 91 -66z m949 9
c88 -127 111 -207 73 -256 -41 -52 -74 -62 -197 -62 -62 1 -117 5 -123 11 -7
7 -5 46 6 119 13 90 19 113 37 125 12 8 51 38 87 67 36 29 68 52 71 53 3 0 24
-26 46 -57z m-695 -178 c49 -27 88 -53 88 -56 0 -9 -154 -57 -162 -50 -13 12
-36 162 -24 159 6 -2 50 -25 98 -53z m402 -17 c-8 -40 -16 -78 -18 -85 -4 -8
-28 -4 -85 15 -45 14 -81 29 -81 32 0 7 172 108 186 109 9 1 8 -19 -2 -71z
m-147 -109 c57 -23 103 -47 103 -53 0 -25 -71 -157 -104 -194 -67 -74 -117
-78 -186 -16 -37 33 -120 178 -120 209 0 9 166 87 200 94 2 1 51 -18 107 -40z"/>
<path d="M1469 1020 c-127 -22 -193 -169 -125 -284 69 -118 253 -118 322 0 84
143 -33 312 -197 284z"/>
</g>
</svg>
