<?xml version="1.0" standalone="no"?>
<!DOCTYPE svg PUBLIC "-//W3C//DTD SVG 20010904//EN"
 "http://www.w3.org/TR/2001/REC-SVG-20010904/DTD/svg10.dtd">
<svg version="1.0" xmlns="http://www.w3.org/2000/svg"
 width="500.000000pt" height="500.000000pt" viewBox="0 0 500.000000 500.000000"
 preserveAspectRatio="xMidYMid meet">

<g transform="translate(0.000000,500.000000) scale(0.100000,-0.100000)"
fill="#000000" stroke="none">
<path d="M2647 4793 c-126 -110 -264 -166 -447 -182 -63 -5 -145 -19 -181 -30
-172 -54 -320 -213 -361 -388 -12 -50 -15 -53 -48 -59 -298 -50 -532 -217
-657 -469 -80 -160 -93 -246 -93 -610 0 -270 2 -293 21 -335 27 -60 54 -88
114 -116 47 -23 61 -24 252 -24 l201 0 119 -120 c65 -66 126 -137 135 -158 20
-43 24 -156 7 -216 -7 -27 -35 -65 -88 -120 -42 -45 -86 -97 -98 -116 -64
-106 -70 -267 -15 -385 29 -61 59 -95 257 -295 l224 -225 138 -5 138 -5 0 -75
0 -75 -315 -5 c-310 -5 -316 -5 -365 -30 -227 -112 -235 -433 -14 -555 l54
-30 857 -3 c839 -2 857 -2 910 18 118 44 189 141 196 270 7 133 -55 242 -173
300 -49 25 -55 25 -365 30 l-315 5 0 75 0 75 212 3 213 2 223 223 c294 293
280 263 289 577 4 147 12 257 21 295 8 33 35 143 61 245 80 325 100 457 100
675 1 227 -2 247 -101 634 l-74 293 129 132 c119 121 132 137 147 191 12 39
16 78 12 115 -9 105 -32 139 -230 337 l-182 183 -427 0 -427 0 -54 -47z m631
-147 c-11 -98 -79 -191 -171 -235 -51 -24 -83 -32 -177 -40 -219 -19 -292 -60
-540 -306 -187 -186 -237 -221 -330 -232 -103 -12 -210 50 -246 142 -41 109 6
276 106 369 75 70 139 96 268 107 216 20 392 83 517 187 l60 50 259 1 259 1
-5 -44z m353 -104 c80 -81 154 -158 163 -172 10 -15 16 -45 16 -78 l0 -54
-145 -148 c-125 -127 -145 -152 -145 -179 0 -17 36 -174 79 -349 95 -379 104
-433 99 -624 l-3 -147 -35 -37 c-19 -20 -69 -62 -111 -94 -194 -145 -392 -219
-639 -238 l-95 -7 -3 -72 -4 -73 89 0 c224 0 476 81 673 215 44 30 80 51 80
46 0 -14 -48 -219 -86 -366 -34 -134 -36 -150 -43 -380 -6 -189 -11 -246 -24
-270 -8 -16 -67 -81 -130 -144 l-115 -113 53 261 c46 229 50 261 36 265 -35
10 -133 28 -136 24 -1 -1 -33 -156 -69 -343 -37 -187 -69 -348 -72 -357 -5
-17 -38 -18 -503 -18 l-497 0 -200 203 c-112 112 -208 218 -217 239 -27 58
-31 118 -13 182 14 47 30 71 91 135 l75 78 84 -43 c246 -128 529 -108 772 55
33 22 76 57 97 79 l38 39 -56 52 -57 51 -56 -50 c-115 -103 -310 -170 -451
-156 -82 9 -186 44 -251 86 l-50 32 -2 114 c-1 63 -2 124 -2 136 -1 15 6 24
19 26 193 27 358 121 476 268 55 70 129 206 129 238 0 13 -104 56 -134 56 -6
0 -21 -26 -34 -57 -77 -199 -300 -353 -509 -353 l-58 0 -93 93 -93 93 -4 160
c-2 87 -11 202 -19 254 -19 111 -55 262 -65 273 -4 4 -38 -2 -75 -13 -65 -20
-68 -23 -63 -48 3 -15 18 -83 33 -152 22 -102 27 -152 28 -275 l1 -150 -173 0
c-172 0 -174 0 -194 24 -18 24 -19 39 -16 345 l3 321 28 80 c53 151 150 275
279 362 70 46 195 95 274 108 42 6 42 6 54 -32 31 -94 114 -189 203 -232 90
-44 212 -49 310 -15 22 8 41 13 42 12 1 -2 31 -119 66 -261 l64 -259 35 6 c74
12 110 27 110 44 0 9 -32 141 -70 292 l-69 275 137 139 c224 227 281 260 476
275 132 11 201 34 284 95 90 67 162 177 177 273 3 21 8 53 11 71 9 60 37 44
195 -116z m-1051 -3682 l0 -80 -80 0 -80 0 0 80 0 80 80 0 80 0 0 -80z m782
-258 c39 -24 78 -91 78 -133 0 -49 -42 -112 -90 -136 l-44 -23 -806 0 -806 0
-44 23 c-33 16 -51 34 -67 67 -28 55 -29 82 -3 136 22 45 56 73 105 85 16 4
392 7 835 6 l805 -2 37 -23z"/>
<path d="M3288 3911 c-31 -20 -60 -39 -63 -43 -3 -3 8 -32 24 -64 105 -203 72
-454 -79 -604 -138 -136 -358 -188 -535 -124 -38 13 -77 27 -85 30 -10 3 -25
-13 -47 -54 -18 -33 -33 -64 -33 -70 0 -11 72 -43 155 -68 82 -25 256 -25 345
0 135 37 292 138 365 234 149 195 173 487 58 717 -19 39 -38 73 -41 76 -4 4
-33 -10 -64 -30z"/>
<path d="M2970 3360 l0 -80 75 0 75 0 0 80 0 80 -75 0 -75 0 0 -80z"/>
<path d="M1880 2735 l0 -75 75 0 75 0 0 75 0 75 -75 0 -75 0 0 -75z"/>
<path d="M2422 1563 l3 -78 75 0 75 0 3 78 3 77 -81 0 -81 0 3 -77z"/>
</g>
</svg>
