<?xml version="1.0" standalone="no"?>
<!DOCTYPE svg PUBLIC "-//W3C//DTD SVG 20010904//EN"
 "http://www.w3.org/TR/2001/REC-SVG-20010904/DTD/svg10.dtd">
<svg version="1.0" xmlns="http://www.w3.org/2000/svg"
 width="500.000000pt" height="500.000000pt" viewBox="0 0 500.000000 500.000000"
 preserveAspectRatio="xMidYMid meet">

<g transform="translate(0.000000,500.000000) scale(0.100000,-0.100000)"
fill="#000000" stroke="none">
<path d="M2375 4462 c-28 -9 -66 -28 -85 -42 -50 -35 -2231 -1853 -2257 -1882
-22 -23 -28 -43 -25 -84 2 -20 166 -225 218 -272 31 -27 89 -29 124 -5 26 17
1575 1305 1939 1611 112 94 207 172 211 172 3 0 71 -55 151 -122 729 -614
1978 -1648 2012 -1666 67 -35 88 -23 216 129 60 72 111 142 114 157 3 15 -1
41 -9 57 -9 18 -149 141 -359 315 l-345 285 0 637 c0 380 -4 647 -10 662 -5
14 -21 33 -37 43 -25 16 -56 18 -343 18 -341 0 -356 -2 -379 -52 -7 -16 -11
-128 -11 -333 0 -178 -4 -310 -9 -310 -5 0 -110 84 -233 187 -635 533 -597
506 -743 511 -66 2 -103 -2 -140 -16z"/>
<path d="M2205 3438 c-154 -128 -359 -298 -456 -378 -847 -698 -1007 -830
-1017 -843 -10 -11 -12 -195 -10 -793 l3 -779 24 -36 c14 -20 41 -47 60 -60
l35 -24 625 0 626 0 -4 570 c-2 314 -1 580 3 593 l7 22 402 -2 402 -3 0 -590
0 -590 600 -3 c330 -1 615 0 633 3 42 8 100 59 123 110 17 38 19 87 19 807 l0
768 -82 69 c-99 83 -765 634 -1296 1071 -211 173 -390 316 -400 317 -10 2
-135 -95 -297 -229z"/>
</g>
</svg>
