<?xml version="1.0" standalone="no"?>
<!DOCTYPE svg PUBLIC "-//W3C//DTD SVG 20010904//EN"
 "http://www.w3.org/TR/2001/REC-SVG-20010904/DTD/svg10.dtd">
<svg version="1.0" xmlns="http://www.w3.org/2000/svg"
 width="479.000000pt" height="521.000000pt" viewBox="0 0 479.000000 521.000000"
 preserveAspectRatio="xMidYMid meet">

<g transform="translate(0.000000,521.000000) scale(0.100000,-0.100000)"
fill="#000000" stroke="none">
<path d="M2355 5200 c-47 -10 -84 -39 -106 -81 -17 -35 -19 -60 -19 -285 0
-232 1 -248 21 -284 60 -107 228 -106 288 1 21 37 22 48 19 296 -3 251 -4 259
-26 289 -41 54 -110 79 -177 64z"/>
<path d="M1119 4800 c-74 -22 -121 -84 -121 -159 0 -26 5 -59 12 -72 26 -49
262 -369 287 -389 110 -86 273 -4 273 138 0 44 -18 75 -156 265 -118 161 -158
204 -204 217 -40 11 -55 11 -91 0z"/>
<path d="M3587 4802 c-49 -12 -93 -58 -217 -229 -139 -191 -154 -219 -147
-281 9 -85 76 -142 166 -142 92 0 105 12 282 258 41 57 83 118 95 135 85 129
-30 294 -179 259z"/>
<path d="M2230 4173 c-276 -41 -523 -165 -715 -358 -424 -426 -486 -1072 -150
-1575 32 -47 60 -87 64 -90 4 -3 40 -50 80 -105 40 -55 82 -111 92 -125 10
-14 62 -92 116 -175 l98 -150 5 -215 5 -215 565 0 565 0 5 205 5 205 35 55
c90 143 264 396 338 492 141 184 200 294 251 466 88 299 59 628 -81 907 -162
322 -467 566 -811 649 -120 29 -182 36 -311 35 -72 -1 -142 -3 -156 -6z"/>
<path d="M335 3746 c-98 -44 -134 -179 -68 -257 35 -41 51 -48 268 -121 160
-53 201 -63 258 -63 67 0 69 1 107 41 49 52 63 102 48 162 -17 70 -58 102
-179 141 -57 19 -156 52 -219 73 -122 40 -167 45 -215 24z"/>
<path d="M4300 3741 c-30 -10 -126 -42 -214 -70 -175 -58 -197 -69 -225 -115
-68 -114 11 -256 143 -256 34 0 319 87 434 132 120 47 155 173 75 269 -51 60
-116 72 -213 40z"/>
<path d="M560 2529 c-102 -33 -202 -67 -223 -76 -128 -55 -139 -241 -18 -303
22 -11 58 -20 79 -20 36 0 370 101 455 137 78 34 116 118 91 202 -21 72 -88
122 -161 120 -21 0 -121 -27 -223 -60z"/>
<path d="M3926 2567 c-51 -29 -76 -64 -83 -115 -8 -63 4 -107 41 -145 29 -30
63 -44 249 -106 126 -41 233 -71 257 -71 112 0 189 102 160 212 -22 80 -51 97
-296 177 -122 39 -237 71 -255 71 -19 0 -52 -10 -73 -23z"/>
<path d="M1356 1737 c-22 -5 -54 -26 -75 -46 -55 -55 -263 -351 -278 -394 -26
-75 11 -158 87 -197 93 -48 165 -14 262 120 223 308 213 292 213 360 -1 46 -6
64 -27 92 -43 57 -115 83 -182 65z"/>
<path d="M3346 1737 c-57 -14 -113 -74 -121 -131 -9 -58 6 -102 59 -174 23
-31 84 -114 134 -184 74 -101 101 -131 135 -147 53 -26 90 -26 143 -2 74 34
115 114 94 190 -8 32 -159 252 -261 382 -46 58 -116 84 -183 66z"/>
<path d="M1884 946 c-49 -22 -74 -61 -74 -118 0 -43 4 -54 34 -84 l34 -34 517
0 517 0 34 34 c30 30 34 41 34 84 0 58 -25 97 -76 118 -48 20 -974 20 -1020 0z"/>
<path d="M1880 465 c0 -54 53 -150 103 -186 50 -37 120 -69 150 -69 18 0 26
-11 40 -49 24 -70 100 -136 170 -151 81 -16 145 1 207 57 34 31 55 60 67 94
12 33 23 49 35 49 32 0 117 37 157 69 46 37 101 138 101 188 l0 33 -515 0
-515 0 0 -35z"/>
</g>
</svg>
