<?xml version="1.0" standalone="no"?>
<!DOCTYPE svg PUBLIC "-//W3C//DTD SVG 20010904//EN"
 "http://www.w3.org/TR/2001/REC-SVG-20010904/DTD/svg10.dtd">
<svg version="1.0" xmlns="http://www.w3.org/2000/svg"
 width="500.000000pt" height="500.000000pt" viewBox="0 0 500.000000 500.000000"
 preserveAspectRatio="xMidYMid meet">

<g transform="translate(0.000000,500.000000) scale(0.100000,-0.100000)"
fill="#000000" stroke="none">
<path d="M1137 4043 c-16 -15 -4 -55 42 -149 119 -244 517 -781 992 -1339 173
-204 392 -446 409 -453 4 -2 18 14 31 35 58 96 175 202 242 218 55 14 67 -3
-232 335 -347 391 -818 858 -1161 1151 -154 132 -302 224 -323 202z"/>
<path d="M2861 2255 c-36 -19 -78 -47 -94 -62 -37 -35 -107 -141 -107 -162 0
-16 88 -111 102 -111 3 0 20 24 36 53 37 66 140 161 198 183 24 9 44 21 44 26
0 22 -76 108 -95 108 -11 0 -49 -16 -84 -35z"/>
<path d="M3030 2064 c-98 -52 -190 -153 -190 -207 0 -16 51 -60 147 -126 l62
-43 63 64 c35 36 78 73 96 82 17 9 32 21 32 27 0 22 -117 220 -138 233 -4 2
-37 -11 -72 -30z"/>
<path d="M3289 1774 c-25 -8 -56 -24 -68 -36 -22 -19 -23 -27 -19 -107 3 -76
9 -96 45 -172 32 -65 59 -102 112 -156 39 -38 71 -73 71 -77 0 -11 -62 24
-119 67 -97 74 -153 173 -169 297 -8 53 -8 54 -21 30 -23 -40 -26 -150 -7
-211 46 -147 218 -278 448 -343 87 -25 338 -54 358 -41 6 3 -11 32 -38 65 -85
106 -120 187 -147 345 -31 184 -109 286 -252 334 -71 24 -127 25 -194 5z"/>
</g>
</svg>
