<?xml version="1.0" encoding="UTF-8" standalone="no"?>
<!DOCTYPE svg PUBLIC "-//W3C//DTD SVG 1.0//EN" "http://www.w3.org/TR/2001/PR-SVG-20010719/DTD/svg10.dtd">
<svg width="22cm" height="20cm" viewBox="217 77 438 393" xmlns="http://www.w3.org/2000/svg" xmlns:xlink="http://www.w3.org/1999/xlink">
  <g>
    <rect style="fill: #9f9fed" x="353" y="163" width="97.3" height="36"/>
    <rect style="fill: none; fill-opacity:0; stroke-width: 2; stroke: #000000" x="353" y="163" width="97.3" height="36"/>
    <text font-size="12.8" style="fill: #000000;text-anchor:middle;font-family:monospace;font-style:normal;font-weight:normal" x="401.65" y="184.2">Artículos</text>
  </g>
  <g>
    <rect style="fill: #75ccef" x="361" y="353" width="81.9" height="36"/>
    <rect style="fill: none; fill-opacity:0; stroke-width: 2; stroke: #000000" x="361" y="353" width="81.9" height="36"/>
    <text font-size="12.8" style="fill: #000000;text-anchor:middle;font-family:monospace;font-style:normal;font-weight:normal" x="401.95" y="374.2">Tickets</text>
  </g>
  <g>
    <polygon style="fill: #ffffff" points="350,275.48 400.8,245 451.6,275.48 400.8,305.96 "/>
    <polygon style="fill: none; fill-opacity:0; stroke-width: 2; stroke: #000000" points="350,275.48 400.8,245 451.6,275.48 400.8,305.96 "/>
    <text font-size="12.8" style="fill: #000000;text-anchor:start;font-family:monospace;font-style:normal;font-weight:normal" x="404.8" y="239">1:N</text>
    <text font-size="12.8" style="fill: #000000;text-anchor:start;font-family:monospace;font-style:normal;font-weight:normal" x="404.8" y="327.96">1:M</text>
    <text font-size="12.8" style="fill: #000000;text-anchor:middle;font-family:monospace;font-style:normal;font-weight:normal" x="400.8" y="278.68">Tenencia</text>
  </g>
  <line style="fill: none; fill-opacity:0; stroke-width: 2; stroke: #000000" x1="401.65" y1="199" x2="400.8" y2="245"/>
  <line style="fill: none; fill-opacity:0; stroke-width: 2; stroke: #000000" x1="400.8" y1="305.96" x2="401.95" y2="353"/>
  <g>
    <ellipse style="fill: #9f9fed" cx="403.1" cy="96" rx="43.1" ry="18"/>
    <ellipse style="fill: none; fill-opacity:0; stroke-width: 2; stroke: #000000" cx="403.1" cy="96" rx="43.1" ry="18"/>
    <text font-size="12.8" style="fill: #000000;text-anchor:middle;font-family:monospace;font-style:normal;font-weight:normal" x="403.1" y="99.2">precio</text>
  </g>
  <g>
    <ellipse style="fill: #9f9fed" cx="552.05" cy="129" rx="70.05" ry="18"/>
    <ellipse style="fill: none; fill-opacity:0; stroke-width: 2; stroke: #000000" cx="552.05" cy="129" rx="70.05" ry="18"/>
    <text font-size="12.8" style="fill: #000000;text-anchor:middle;font-family:monospace;font-style:normal;font-weight:normal" x="552.05" y="132.2">cantidadStock</text>
  </g>
  <g>
    <ellipse style="fill: #9f9fed" cx="280.35" cy="128" rx="62.35" ry="18"/>
    <ellipse style="fill: none; fill-opacity:0; stroke-width: 2; stroke: #000000" cx="280.35" cy="128" rx="62.35" ry="18"/>
    <text font-size="12.8" style="fill: #000000;text-anchor:middle;font-family:monospace;font-style:normal;font-weight:normal" x="280.35" y="131.2">descripción</text>
  </g>
  <g>
    <ellipse style="fill: #75ccef" cx="319.25" cy="451" rx="39.25" ry="18"/>
    <ellipse style="fill: none; fill-opacity:0; stroke-width: 2; stroke: #000000" cx="319.25" cy="451" rx="39.25" ry="18"/>
    <text font-size="12.8" style="fill: #000000;text-anchor:middle;font-family:monospace;font-style:normal;font-weight:normal" x="319.25" y="454.2">fecha</text>
  </g>
  <g>
    <ellipse style="fill: #75ccef" cx="518.35" cy="451" rx="62.35" ry="18"/>
    <ellipse style="fill: none; fill-opacity:0; stroke-width: 2; stroke: #000000" cx="518.35" cy="451" rx="62.35" ry="18"/>
    <text font-size="12.8" style="fill: #000000;text-anchor:middle;font-family:monospace;font-style:normal;font-weight:normal" x="518.35" y="454.2">precioTotal</text>
  </g>
  <line style="fill: none; fill-opacity:0; stroke-width: 2; stroke: #000000" x1="403.1" y1="114" x2="401.65" y2="163"/>
  <line style="fill: none; fill-opacity:0; stroke-width: 2; stroke: #000000" x1="342.7" y1="128" x2="401.65" y2="163"/>
  <line style="fill: none; fill-opacity:0; stroke-width: 2; stroke: #000000" x1="482" y1="129" x2="401.65" y2="163"/>
  <line style="fill: none; fill-opacity:0; stroke-width: 2; stroke: #000000" x1="358.5" y1="451" x2="401.95" y2="389"/>
  <line style="fill: none; fill-opacity:0; stroke-width: 2; stroke: #000000" x1="456" y1="451" x2="401.95" y2="389"/>
  <g>
    <ellipse style="fill: #ffffff" cx="571.6" cy="249" rx="81.6" ry="18"/>
    <ellipse style="fill: none; fill-opacity:0; stroke-width: 2; stroke: #000000" cx="571.6" cy="249" rx="81.6" ry="18"/>
    <text font-size="12.8" style="fill: #000000;text-anchor:middle;font-family:monospace;font-style:normal;font-weight:normal" x="571.6" y="252.2">CantidadArticulo</text>
  </g>
  <line style="fill: none; fill-opacity:0; stroke-width: 2; stroke: #000000" x1="490" y1="249" x2="451.6" y2="275.48"/>
</svg>
