<?xml version="1.0" standalone="no"?>
<!DOCTYPE svg PUBLIC "-//W3C//DTD SVG 20010904//EN"
 "http://www.w3.org/TR/2001/REC-SVG-20010904/DTD/svg10.dtd">
<svg version="1.0" xmlns="http://www.w3.org/2000/svg"
 width="512.000000pt" height="512.000000pt" viewBox="0 0 512.000000 512.000000"
 preserveAspectRatio="xMidYMid meet">
<metadata>
Created by potrace 1.16, written by Peter Selinger 2001-2019
</metadata>
<g transform="translate(0.000000,512.000000) scale(0.100000,-0.100000)"
fill="#000000" stroke="none">
<path d="M1014 4050 c-77 -20 -171 -64 -244 -113 -90 -61 -156 -125 -307 -299
-84 -97 -165 -185 -181 -196 -15 -10 -44 -22 -64 -25 -82 -13 -165 -75 -199
-151 -25 -55 -25 -167 0 -221 39 -87 143 -155 236 -155 129 0 266 55 383 153
35 28 124 122 197 208 196 229 269 288 354 289 52 0 111 -68 226 -261 103
-173 131 -213 204 -294 95 -104 190 -168 306 -207 100 -33 307 -33 410 -1 141
45 265 141 367 283 25 36 87 139 138 230 50 91 104 178 119 193 27 28 29 28
59 13 39 -20 107 -107 227 -291 154 -236 252 -342 380 -408 108 -56 255 -72
384 -42 87 21 220 92 318 170 45 36 141 129 214 208 73 78 178 187 234 243 86
87 106 102 141 107 58 9 133 63 168 121 24 38 31 63 34 115 6 97 -10 143 -71
206 -70 72 -136 92 -246 77 -159 -22 -289 -114 -517 -363 -179 -196 -314 -324
-368 -351 l-46 -22 -31 30 c-17 16 -94 124 -171 239 -205 306 -324 419 -508
481 -82 28 -272 25 -355 -5 -77 -28 -150 -76 -219 -145 -68 -68 -111 -133
-210 -311 -129 -232 -177 -283 -257 -272 -76 10 -120 60 -274 317 -102 170
-172 260 -258 332 -69 57 -175 110 -255 127 -81 17 -236 13 -318 -9z"/>
<path d="M1030 2364 c-93 -20 -232 -92 -327 -168 -49 -40 -141 -135 -231 -240
-176 -202 -196 -221 -252 -230 -85 -13 -165 -74 -201 -151 -25 -54 -25 -165 0
-221 73 -160 266 -199 476 -95 112 56 192 127 343 304 189 222 269 287 354
287 45 0 106 -68 197 -221 151 -251 219 -340 330 -429 202 -162 497 -187 734
-63 134 71 247 204 382 453 72 132 113 198 138 219 39 32 108 -44 289 -319
213 -323 350 -427 579 -438 154 -7 253 23 401 120 94 62 187 150 483 461 115
120 156 157 175 157 40 0 123 44 154 81 96 113 87 285 -19 378 -55 48 -99 64
-180 64 -175 -1 -315 -85 -527 -318 -248 -272 -380 -395 -440 -410 -34 -9 -68
31 -228 271 -208 310 -337 426 -531 475 -65 17 -102 20 -169 16 -152 -9 -262
-60 -377 -176 -69 -70 -107 -126 -216 -321 -117 -210 -162 -260 -230 -260 -81
0 -131 53 -278 296 -49 82 -115 182 -146 222 -103 135 -225 220 -368 257 -73
19 -226 18 -315 -1z"/>
</g>
</svg>
