<?xml version="1.0" standalone="no"?>
<!DOCTYPE svg PUBLIC "-//W3C//DTD SVG 20010904//EN"
 "http://www.w3.org/TR/2001/REC-SVG-20010904/DTD/svg10.dtd">
<svg version="1.0" xmlns="http://www.w3.org/2000/svg"
 width="348.000000pt" height="348.000000pt" viewBox="0 0 348.000000 348.000000"
 preserveAspectRatio="xMidYMid meet">
<metadata>
Created by potrace 1.16, written by Peter Selinger 2001-2019
</metadata>
<g transform="translate(0.000000,348.000000) scale(0.100000,-0.100000)"
fill="#000000" stroke="none">
<path d="M470 3366 c-231 -65 -407 -276 -450 -538 -34 -210 16 -471 136 -710
l34 -68 131 0 c104 0 129 3 121 13 -22 27 -101 197 -126 271 -99 297 -59 590
100 735 173 158 412 79 599 -200 149 -222 299 -593 389 -961 127 -521 206
-1129 206 -1595 l0 -213 129 0 128 0 6 283 c11 520 89 1090 217 1592 127 498
333 926 523 1089 158 135 340 142 465 17 185 -185 186 -556 4 -933 l-47 -98
127 0 128 0 34 68 c151 302 187 622 96 865 -50 132 -171 273 -289 336 -164 87
-391 83 -561 -11 -397 -220 -708 -941 -790 -1833 -18 -200 -19 -205 -40 -205
-21 0 -22 6 -40 190 -93 927 -403 1646 -799 1854 -36 19 -94 41 -127 50 -74
19 -239 20 -304 2z"/>
</g>
</svg>
