<?xml version="1.0" standalone="no"?>
<!DOCTYPE svg PUBLIC "-//W3C//DTD SVG 20010904//EN"
 "http://www.w3.org/TR/2001/REC-SVG-20010904/DTD/svg10.dtd">
<svg version="1.0" xmlns="http://www.w3.org/2000/svg"
 width="490.000000pt" height="490.000000pt" viewBox="0 0 490.000000 490.000000"
 preserveAspectRatio="xMidYMid meet">
<metadata>
Created by potrace 1.16, written by Peter Selinger 2001-2019
</metadata>
<g transform="translate(0.000000,490.000000) scale(0.100000,-0.100000)"
fill="#000000" stroke="none">
<path d="M2187 4675 c-931 -118 -1686 -780 -1911 -1674 -157 -622 -45 -1278
308 -1801 96 -141 146 -203 259 -319 325 -331 717 -544 1172 -636 742 -149
1513 92 2045 641 275 284 469 632 564 1013 53 210 61 281 61 546 0 217 -3 267
-23 377 -83 460 -288 861 -610 1190 -345 353 -778 576 -1267 653 -140 22 -462
28 -598 10z m603 -40 c474 -81 870 -279 1203 -604 366 -357 589 -807 657
-1329 14 -108 14 -391 0 -512 -11 -92 -42 -254 -60 -315 -124 -410 -278 -684
-542 -960 -183 -191 -377 -334 -623 -455 -435 -215 -914 -280 -1393 -189 -743
141 -1370 663 -1646 1369 -102 262 -149 512 -149 800 -1 366 69 666 232 995
116 233 241 404 437 596 369 360 792 556 1344 623 81 10 449 -3 540 -19z"/>
<path d="M2234 4481 c-53 -23 -80 -104 -54 -166 7 -18 8 -17 15 10 14 56 32
75 73 75 81 0 133 -97 158 -294 9 -66 20 -125 25 -130 6 -6 9 -6 9 0 0 32 31
265 39 292 28 94 89 152 146 138 27 -7 55 -51 55 -88 1 -22 1 -22 15 -4 40 53
22 131 -36 162 -64 33 -140 -7 -177 -94 -22 -52 -42 -152 -42 -216 0 -65 -16
-28 -29 67 -15 109 -42 185 -79 221 -31 29 -84 41 -118 27z"/>
<path d="M3313 4257 c-6 -45 -19 -106 -29 -134 l-17 -53 -46 -1 c-25 0 -55 -4
-66 -9 -18 -8 -18 -9 5 -10 14 0 38 -6 54 -13 l29 -12 -49 -65 c-27 -36 -70
-80 -97 -100 -40 -30 -44 -36 -26 -38 51 -8 150 62 215 152 20 28 21 28 53 11
24 -12 31 -21 26 -33 -35 -82 -46 -122 -46 -167 -1 -55 16 -125 30 -125 5 0
11 30 14 68 5 67 39 176 59 188 5 3 25 -9 44 -27 42 -40 46 -20 8 36 -22 33
-24 41 -13 62 14 25 119 128 159 155 l25 17 -25 0 c-43 1 -123 -44 -176 -99
l-51 -52 -32 16 c-36 19 -35 16 -16 80 23 75 15 212 -13 230 -4 2 -13 -32 -19
-77z"/>
<path d="M1638 4303 c-7 -16 -12 -71 -13 -123 -1 -114 -13 -138 -85 -169 -66
-28 -79 -27 -140 15 -67 46 -128 74 -160 73 -22 -1 -21 -2 8 -12 18 -5 46 -26
63 -46 66 -78 83 -92 111 -98 22 -4 27 -10 22 -22 -43 -106 34 -216 151 -214
27 0 66 7 86 16 82 34 138 126 123 203 -8 42 -73 114 -103 114 -28 0 -32 11
-20 54 9 31 6 51 -11 109 -12 39 -20 83 -18 99 6 35 1 36 -14 1z m78 -336 c66
-60 56 -171 -19 -217 -70 -43 -163 -13 -201 64 -16 32 -17 44 -7 75 9 31 17
40 48 49 21 6 54 23 73 36 47 33 64 32 106 -7z"/>
<path d="M1795 3703 c-148 -86 -295 -170 -325 -187 -61 -35 -44 -9 -291 -439
l-149 -257 0 -376 0 -376 41 -69 c23 -38 43 -69 46 -69 5 0 -38 77 -64 115
-10 15 -13 97 -13 397 l0 378 190 328 190 327 57 34 c32 18 178 103 325 187
l267 154 380 0 380 0 228 -131 c125 -72 247 -143 271 -156 23 -14 42 -23 42
-20 0 7 -8 12 -302 181 l-236 136 -384 0 -383 0 -270 -157z"/>
<path d="M1990 3786 c-41 -24 -185 -108 -319 -185 l-245 -141 -188 -326 -188
-326 0 -367 1 -367 44 -74 c46 -76 54 -97 34 -84 -15 9 -9 -1 148 -273 l135
-233 91 -54 c51 -29 199 -115 329 -190 l238 -136 381 0 382 0 81 48 c45 27
192 113 329 191 144 83 252 152 258 164 17 33 275 481 325 564 24 40 40 73 36
73 -4 0 -23 -28 -43 -63 -19 -34 -104 -181 -188 -327 l-153 -265 -325 -187
-326 -188 -378 0 -379 0 -293 169 c-160 92 -307 177 -326 189 -21 12 -50 47
-74 89 -143 245 -238 415 -234 419 2 2 67 -105 144 -238 l141 -243 153 -89
c85 -48 231 -133 326 -187 l171 -99 367 0 366 0 325 188 325 187 43 75 c24 41
107 185 185 319 l141 244 0 380 0 380 -181 313 c-99 172 -188 319 -197 326 -9
8 -155 94 -324 191 l-308 177 -377 0 -378 0 -75 -44z m520 -78 c29 -51 81
-140 115 -198 34 -58 64 -112 68 -120 4 -8 40 -71 80 -140 l73 -125 119 -3
c164 -3 177 -16 23 -22 l-127 -5 54 -94 c30 -52 52 -98 49 -102 -2 -4 2 -11
10 -16 16 -9 136 -221 136 -240 0 -7 -3 -13 -7 -13 -11 1 -157 259 -150 266 2
3 -5 15 -17 28 -11 12 -40 57 -64 99 l-42 77 -105 0 c-138 0 -148 18 -12 22
l104 3 -68 119 c-37 66 -66 123 -63 128 3 4 1 8 -4 8 -7 0 -70 104 -153 254
-70 130 -76 137 -86 124 -10 -12 -354 -612 -361 -630 -2 -4 35 -8 83 -8 55 0
84 -4 80 -10 -3 -5 -45 -10 -93 -10 l-88 0 -38 -67 c-41 -72 -64 -103 -77
-103 -4 0 14 38 41 85 l49 85 -134 0 c-83 0 -135 4 -135 10 0 6 53 10 139 10
154 0 141 -6 190 85 58 106 83 145 93 145 5 0 7 4 4 9 -3 4 35 77 85 162 50
85 107 182 127 216 21 35 39 63 42 63 3 0 30 -42 60 -92z m955 -588 c110 0
155 -3 155 -11 0 -7 -17 -39 -38 -73 -49 -77 -66 -110 -55 -103 5 3 24 2 43
-3 35 -8 35 -8 -12 -9 -38 -1 -50 -6 -61 -23 -8 -13 -43 -70 -77 -127 -35 -57
-65 -100 -67 -94 -2 6 18 46 45 89 26 43 58 96 71 117 l23 37 -69 0 c-62 0
-66 -1 -43 -13 62 -33 71 -39 67 -43 -3 -3 -29 7 -57 21 l-53 27 22 -30 c30
-42 26 -51 -8 -18 l-29 28 9 -38 c4 -22 8 -50 8 -64 -1 -21 -3 -19 -13 12 -17
57 -23 53 -25 -19 -3 -104 -11 -88 -11 23 l0 99 -22 -32 c-13 -17 -31 -36 -41
-43 -15 -9 -14 -5 5 22 13 18 26 35 31 36 4 2 7 8 7 13 0 6 -10 3 -22 -5 -12
-9 -29 -16 -38 -16 -8 0 1 10 20 23 l35 22 -72 3 c-89 4 -97 22 -10 23 34 0
55 3 47 6 -54 20 -82 34 -78 39 3 2 29 -4 57 -15 51 -19 65 -15 36 9 -9 7 -25
27 -37 44 -17 25 -12 22 26 -14 44 -42 46 -43 36 -16 -6 16 -8 31 -5 34 2 3 9
-6 14 -19 7 -20 9 -16 12 29 l4 52 -87 0 c-50 0 -88 4 -88 10 0 5 39 11 88 12
l87 3 5 70 4 70 4 -72 3 -73 154 0z m-1705 -10 c0 -6 -85 -10 -236 -10 l-236
0 46 -85 c26 -47 79 -143 118 -213 40 -70 71 -129 69 -131 -1 -2 1 -7 6 -10 5
-3 36 -54 69 -113 32 -60 61 -108 64 -108 3 0 25 36 50 80 25 44 46 74 48 66
2 -8 -17 -50 -42 -93 l-45 -78 23 -40 c52 -88 75 -138 70 -147 -4 -6 -26 26
-51 71 -24 44 -47 83 -52 85 -4 3 -16 -12 -27 -32 -49 -93 -97 -172 -105 -172
-13 0 -11 7 14 48 13 20 42 71 65 112 l41 75 -50 90 c-28 50 -66 117 -84 150
-18 33 -83 148 -143 255 -60 107 -107 198 -105 203 7 11 493 9 493 -3z m414
-97 c14 -26 15 -27 16 -5 0 12 5 22 11 22 6 0 8 -9 4 -22 -6 -21 -4 -21 19 5
28 31 35 24 11 -10 -22 -31 -4 -37 71 -23 93 18 91 5 -3 -16 -58 -13 -73 -19
-58 -25 13 -5 15 -8 5 -8 -9 -1 -3 -9 15 -22 28 -19 28 -20 5 -14 -14 4 -29
11 -34 16 -19 18 -27 9 -12 -13 22 -31 20 -48 -2 -20 -18 24 -18 23 -16 -40
l3 -63 -11 65 -11 65 -13 -35 -14 -35 6 39 5 39 -51 -54 c-55 -57 -55 -52 -1
19 l33 43 -28 -6 c-27 -5 -27 -5 -6 5 13 5 20 14 17 20 -3 5 -1 10 6 10 6 0 3
8 -8 18 -10 9 -14 14 -9 10 21 -16 28 -7 11 12 -10 11 -15 23 -12 26 4 4 16
-4 28 -17 20 -23 21 -18 3 26 -10 26 5 16 20 -12z m1173 -360 c-3 -5 -30 -50
-61 -101 -31 -51 -56 -96 -56 -101 0 -5 23 -48 50 -97 28 -49 60 -109 73 -134
12 -25 24 -47 27 -50 6 -5 39 -62 85 -145 62 -112 137 -241 146 -250 5 -5 9
-13 9 -17 0 -4 -112 -8 -250 -8 -157 0 -250 4 -250 10 0 6 90 11 234 12 l235
3 -101 175 c-55 96 -111 193 -123 215 -13 22 -52 91 -88 154 l-65 113 -46 -78
c-25 -43 -46 -70 -46 -60 0 10 18 47 40 82 22 35 40 67 40 71 0 5 -16 35 -36
68 -43 71 -56 103 -45 109 4 3 23 -23 41 -57 59 -111 51 -111 115 -3 32 53 62
96 67 96 5 0 7 -3 5 -7z m-628 -507 c45 87 51 75 7 -15 -34 -71 -32 -77 12
-38 28 26 29 14 1 -21 -24 -31 -14 -37 38 -23 21 6 41 7 46 2 5 -5 -9 -12 -33
-16 -60 -10 -31 -25 49 -25 35 0 61 -3 58 -6 -4 -4 -47 -6 -98 -5 -63 2 -89
-1 -84 -9 3 -5 11 -7 17 -4 7 4 8 2 4 -4 -4 -7 8 -25 26 -41 18 -17 28 -31 22
-31 -5 0 -23 14 -39 30 -38 40 -47 38 -29 -5 8 -19 10 -35 5 -35 -5 0 -14 14
-21 30 -20 48 -26 30 -29 -82 0 -32 -4 -58 -8 -58 -5 0 -8 35 -7 77 l1 78 -20
-47 c-12 -27 -25 -48 -29 -48 -5 0 -6 5 -2 11 3 6 12 34 20 61 l13 51 -44 -43
c-54 -53 -60 -42 -7 14 23 24 30 36 19 32 -11 -3 -31 -8 -45 -11 -19 -3 -15 1
13 13 l40 17 -140 11 c-139 11 -139 11 -55 14 47 2 92 4 100 5 8 1 33 3 55 4
l40 2 -28 15 c-35 19 -30 28 7 14 l27 -10 -22 32 -22 33 31 -29 c37 -34 37
-33 16 40 -22 78 -12 89 13 14 l21 -63 8 154 9 154 5 -152 5 -153 34 66z
m-1207 -8 c-11 -18 -40 -69 -65 -113 -62 -113 -110 -195 -131 -227 l-18 -27
234 -3 c128 -2 290 -1 360 2 l128 5 -50 83 c-27 45 -46 82 -41 82 13 0 36 -31
77 -102 l38 -68 98 0 c128 0 139 -18 13 -22 l-95 -3 65 -110 c36 -60 69 -117
74 -125 5 -8 62 -102 127 -208 64 -106 118 -191 119 -190 1 2 51 91 110 198
120 217 113 205 120 198 3 -3 -47 -101 -111 -217 -64 -117 -120 -209 -124
-204 -9 10 -193 310 -228 373 -14 25 -28 47 -32 50 -4 3 -9 10 -11 16 -2 6
-33 59 -69 118 l-65 106 -382 0 c-211 0 -383 2 -383 4 0 2 35 64 78 137 43 74
97 167 121 207 23 39 47 72 52 72 6 0 2 -15 -9 -32z m1353 -303 l-36 -65 141
0 c87 0 140 -4 140 -10 0 -6 -56 -10 -147 -10 l-148 0 -52 -98 c-29 -53 -59
-106 -67 -117 -32 -42 -13 4 43 108 l59 107 -81 0 c-105 0 -91 18 18 22 l79 3
27 52 c37 71 39 73 50 73 6 0 -6 -29 -26 -65z"/>
<path d="M3315 3053 c4 -63 3 -62 21 -30 9 16 18 27 21 24 2 -3 0 -14 -6 -25
-15 -27 -14 -39 1 -24 19 19 33 14 15 -6 -26 -29 -21 -31 30 -16 66 20 79 11
16 -10 -29 -10 -53 -19 -53 -22 0 -2 33 -4 73 -4 l72 0 27 48 c15 26 37 62 49
80 l21 32 -145 0 -145 0 3 -47z"/>
<path d="M760 3597 c0 -116 -51 -208 -150 -272 -50 -32 -58 -41 -41 -43 12 -2
47 4 78 14 47 15 62 16 102 5 98 -26 214 -127 224 -194 3 -21 14 -51 24 -67
l18 -28 1 67 c2 118 74 232 174 278 22 10 40 21 40 26 0 12 -55 8 -101 -8 -40
-15 -48 -14 -109 4 -118 36 -199 104 -215 181 -8 36 -32 90 -40 90 -3 0 -5
-24 -5 -53z m81 -183 c40 -42 88 -68 153 -85 42 -10 45 -13 33 -28 -8 -9 -22
-31 -32 -50 l-17 -33 -41 40 c-42 41 -136 92 -169 92 -10 0 -18 2 -18 5 0 10
45 94 51 95 3 0 21 -16 40 -36z"/>
<path d="M3936 3576 c95 -32 103 -49 52 -110 -47 -57 -34 -70 115 -111 32 -9
60 -22 64 -31 3 -8 -11 -32 -36 -59 -47 -52 -51 -76 -15 -104 27 -22 120 -45
156 -39 17 3 10 8 -29 20 -105 33 -115 52 -58 108 38 36 45 70 19 91 -9 7 -50
25 -92 39 -90 30 -97 43 -53 99 17 21 31 46 31 55 0 23 -58 45 -133 51 l-62 5
41 -14z"/>
<path d="M3793 3516 c83 -24 94 -46 52 -102 -48 -63 -33 -78 109 -116 73 -20
79 -37 28 -92 -23 -25 -42 -50 -42 -56 0 -44 70 -81 153 -79 l52 1 -48 13
c-51 14 -97 40 -97 55 0 5 18 30 40 55 56 65 42 89 -76 128 -89 30 -97 44 -55
92 58 67 25 104 -98 111 l-66 4 48 -14z"/>
<path d="M607 2738 c-99 -58 -100 -213 -2 -254 52 -21 83 -17 116 15 32 33 36
58 14 87 -13 16 -14 16 -9 1 11 -30 -22 -67 -59 -67 -72 0 -101 78 -48 131 24
23 38 29 73 29 115 0 185 -117 176 -293 -3 -61 -11 -97 -31 -141 -25 -53 -25
-58 -7 -41 12 10 35 48 53 84 29 60 32 74 32 161 0 110 -21 169 -83 234 -71
74 -155 94 -225 54z"/>
<path d="M461 2673 c-95 -115 -100 -311 -14 -436 58 -84 179 -121 251 -77 66
40 92 132 57 200 -35 67 -155 86 -185 30 -13 -24 -13 -71 0 -90 7 -12 10 -8
10 15 0 40 10 54 46 61 42 8 84 -26 84 -70 0 -93 -114 -126 -194 -55 -61 53
-80 109 -81 229 0 97 2 110 31 168 17 34 29 62 28 62 -1 0 -16 -17 -33 -37z"/>
<path d="M4130 2658 c-23 -9 -15 -13 75 -39 55 -16 114 -29 131 -29 40 0 122
-54 146 -96 17 -29 17 -34 4 -47 -26 -26 -89 -30 -181 -12 -82 16 -136 16
-222 -1 -27 -5 -36 -1 -71 34 -23 23 -42 53 -44 69 l-4 28 -13 -30 c-18 -43
-6 -72 43 -103 43 -28 44 -28 29 -57 -23 -42 -18 -100 12 -151 41 -70 105 -99
165 -74 38 16 52 42 52 92 -1 62 -36 107 -117 150 l-40 22 35 7 c40 9 84 1
189 -36 133 -45 211 -29 211 43 0 47 -29 94 -79 129 l-38 28 40 20 c39 19 67
48 56 59 -2 3 -29 -2 -59 -11 -50 -14 -62 -14 -150 1 -107 18 -134 19 -170 4z
m48 -329 c43 -44 48 -66 25 -98 -28 -37 -68 -54 -101 -43 -64 21 -95 130 -51
186 l20 26 38 -19 c20 -11 51 -34 69 -52z"/>
<path d="M998 1845 c65 -53 30 -121 -77 -151 -221 -60 -285 -92 -311 -153 -7
-19 -11 -53 -8 -88 4 -49 10 -61 41 -89 97 -90 215 -55 294 86 57 102 70 119
98 126 53 13 94 -45 62 -87 -33 -43 -82 -44 -106 -1 -10 16 -10 16 -11 -1 0
-30 45 -67 83 -67 97 0 130 132 44 176 -62 33 -131 -9 -217 -131 -47 -66 -91
-95 -146 -95 -51 0 -90 29 -103 76 -21 75 43 125 218 168 57 14 121 36 141 50
38 25 70 78 70 115 0 33 -21 70 -44 77 -59 16 -61 16 -28 -11z"/>
<path d="M3969 1827 l-26 -31 -42 16 c-46 19 -48 17 -22 -20 22 -32 66 -118
75 -149 7 -21 4 -23 -29 -23 -20 0 -62 7 -92 16 -30 9 -57 14 -60 11 -12 -13
79 -59 138 -69 35 -6 65 -12 67 -13 2 -2 62 -206 62 -213 0 -4 -59 7 -117 23
-29 7 -53 12 -53 10 0 -1 31 -21 68 -43 37 -22 89 -63 115 -91 26 -28 49 -51
51 -51 2 0 6 23 8 51 4 33 20 80 46 131 43 84 43 84 -33 16 -16 -16 -35 -28
-41 -28 -6 0 -21 48 -33 107 -19 87 -21 107 -10 114 52 29 87 60 106 94 36 64
27 73 -24 23 -57 -55 -91 -74 -105 -60 -6 6 -11 56 -12 111 0 55 -3 101 -6
100 -3 0 -17 -15 -31 -32z"/>
<path d="M1520 1164 c0 -48 -16 -74 -45 -74 -85 0 -208 -86 -221 -155 -11 -60
19 -76 89 -50 12 5 7 -7 -18 -44 -78 -117 -47 -191 62 -146 45 19 43 20 43
-13 0 -64 62 -87 120 -43 l30 22 0 -39 c0 -66 53 -93 101 -51 21 18 22 19 3
10 -35 -17 -58 8 -51 52 9 55 32 96 92 165 31 35 61 76 69 90 18 37 28 92 16
92 -6 0 -10 -4 -10 -10 0 -5 -34 -47 -75 -93 -41 -46 -89 -110 -107 -142 -52
-91 -149 -130 -133 -53 12 52 32 84 100 159 50 54 69 83 81 125 22 78 10 102
-20 38 -13 -27 -55 -84 -94 -126 -38 -41 -78 -88 -88 -102 -18 -28 -81 -66
-109 -66 -50 0 -16 75 85 185 51 56 84 103 92 127 8 26 22 45 45 59 27 17 73
81 73 102 0 3 -17 -13 -39 -34 -46 -47 -61 -49 -61 -10 0 16 -3 36 -6 45 -11
28 -24 17 -24 -20z"/>
<path d="M3417 1106 c28 -23 38 -43 99 -184 15 -35 38 -72 51 -82 28 -22 24
-53 -9 -71 -35 -19 -68 17 -133 146 -63 124 -87 151 -145 161 l-35 5 28 -21
c41 -32 83 -99 112 -176 14 -38 37 -86 50 -106 27 -41 30 -59 15 -88 -27 -51
-84 -43 -121 16 -11 18 -31 72 -45 121 -41 142 -83 203 -140 203 -26 0 -64
-47 -64 -80 0 -28 -3 -30 -34 -30 -19 0 -38 -4 -41 -10 -3 -5 3 -10 15 -10 31
0 58 -17 74 -48 l15 -27 1 31 c0 17 10 43 21 58 27 34 18 44 -17 21 l-27 -17
7 28 c10 37 24 54 46 54 39 0 74 -69 91 -182 17 -113 59 -178 128 -198 60 -17
102 14 113 84 2 16 12 20 45 21 49 1 70 17 81 58 6 25 15 33 41 38 40 8 51 23
50 69 l-1 35 -10 -28 c-11 -32 -51 -46 -74 -26 -9 8 -38 59 -64 114 -49 105
-84 145 -127 145 l-25 0 29 -24z"/>
<path d="M2685 849 c-84 -17 -290 -22 -408 -9 -65 7 -120 10 -123 7 -3 -3 7
-12 23 -20 58 -29 139 -42 278 -42 118 0 151 4 210 23 39 12 79 29 89 37 19
15 19 15 -5 14 -13 -1 -42 -5 -64 -10z"/>
<path d="M2333 750 c-158 -17 -252 -57 -109 -47 42 3 76 2 76 -1 0 -3 -7 -14
-17 -24 -21 -24 -21 -93 0 -135 10 -18 34 -45 54 -60 33 -25 44 -28 118 -28
70 0 86 3 117 25 20 13 43 36 52 51 21 36 21 127 0 158 l-16 23 76 -4 c42 -2
76 0 76 3 0 9 -65 26 -140 38 -72 12 -178 12 -287 1z m231 -71 c25 -30 30 -49
26 -99 -8 -99 -127 -154 -211 -97 -62 42 -76 140 -28 201 19 24 26 26 104 26
81 0 84 -1 109 -31z"/>
</g>
</svg>
