<?xml version="1.0" standalone="no"?>
<!DOCTYPE svg PUBLIC "-//W3C//DTD SVG 20010904//EN"
 "http://www.w3.org/TR/2001/REC-SVG-20010904/DTD/svg10.dtd">
<svg version="1.0" xmlns="http://www.w3.org/2000/svg"
 width="348.000000pt" height="348.000000pt" viewBox="0 0 348.000000 348.000000"
 preserveAspectRatio="xMidYMid meet">
<metadata>
Created by potrace 1.16, written by Peter Selinger 2001-2019
</metadata>
<g transform="translate(0.000000,348.000000) scale(0.100000,-0.100000)"
fill="#000000" stroke="none">
<path d="M1385 3195 c-426 -54 -826 -202 -1180 -436 -72 -48 -147 -105 -168
-128 -33 -37 -37 -47 -37 -95 0 -66 31 -110 89 -126 53 -14 90 0 174 64 312
238 753 409 1172 456 131 14 393 12 527 -4 168 -21 386 -76 505 -127 l47 -20
-90 -44 c-155 -77 -265 -186 -339 -340 -60 -125 -79 -219 -72 -359 15 -315
217 -570 527 -668 64 -20 95 -23 210 -22 119 0 145 4 215 27 295 99 492 352
512 657 19 310 -140 559 -521 814 -260 174 -554 285 -909 343 -130 21 -520 26
-662 8z m1528 -684 c116 -45 222 -151 268 -269 33 -82 33 -252 0 -334 -52
-134 -165 -237 -303 -279 -57 -18 -87 -21 -163 -17 -81 4 -104 10 -170 41
-101 48 -174 121 -223 224 -36 77 -37 80 -37 198 0 118 1 121 37 198 60 126
149 202 288 249 76 25 222 20 303 -11z"/>
<path d="M585 2125 c-264 -58 -470 -246 -552 -505 -24 -74 -27 -101 -27 -210
0 -126 7 -169 46 -270 122 -318 611 -662 1130 -794 196 -50 328 -68 553 -73
456 -11 881 88 1295 303 152 79 365 220 414 274 32 36 36 46 36 94 0 44 -5 60
-26 85 -53 63 -132 59 -223 -12 -144 -114 -398 -252 -596 -325 -287 -106 -538
-152 -840 -152 -190 0 -355 19 -520 59 -104 26 -268 79 -297 97 -5 3 30 26 79
49 156 77 263 185 338 340 60 124 79 219 72 359 -6 123 -26 198 -83 306 -148
283 -489 443 -799 375z m349 -298 c102 -48 175 -121 224 -224 36 -77 37 -80
37 -198 0 -118 -1 -121 -37 -198 -80 -168 -238 -267 -424 -267 -268 0 -480
230 -461 499 13 191 131 344 315 408 57 20 82 23 168 20 92 -3 109 -7 178 -40z"/>
</g>
</svg>
