<?xml version="1.0" standalone="no"?>
<!DOCTYPE svg PUBLIC "-//W3C//DTD SVG 20010904//EN"
 "http://www.w3.org/TR/2001/REC-SVG-20010904/DTD/svg10.dtd">
<svg version="1.0" xmlns="http://www.w3.org/2000/svg"
 width="900.000000pt" height="900.000000pt" viewBox="0 0 900.000000 900.000000"
 preserveAspectRatio="xMidYMid meet">
<metadata>
Created by potrace 1.16, written by Peter Selinger 2001-2019
</metadata>
<g transform="translate(0.000000,900.000000) scale(0.100000,-0.100000)"
fill="#000000" stroke="none">
<path d="M240 8991 c-84 -26 -168 -98 -211 -181 -21 -39 -24 -59 -24 -145 0
-89 3 -106 27 -150 30 -58 107 -134 165 -163 62 -32 196 -136 284 -220 245
-233 426 -555 497 -882 11 -52 24 -108 28 -125 4 -16 10 -1000 13 -2185 l6
-2155 29 -62 c33 -73 104 -144 174 -176 37 -17 66 -22 137 -22 78 0 97 4 147
28 71 35 140 110 167 183 21 55 21 61 21 2138 0 2005 1 2085 19 2137 69 201
233 422 522 704 292 284 547 475 750 561 101 43 128 42 283 -10 253 -85 545
-267 759 -475 189 -183 306 -370 369 -590 l22 -76 6 -1625 c4 -894 10 -1636
13 -1650 3 -14 11 -81 17 -150 50 -540 218 -1057 471 -1445 90 -139 205 -283
242 -301 l27 -15 -51 -100 c-279 -543 -704 -842 -1369 -963 -185 -33 -317 -46
-576 -55 -206 -7 -224 -10 -276 -33 -110 -51 -176 -137 -199 -258 -26 -142 48
-285 186 -358 l50 -27 245 1 c161 0 295 7 390 18 1020 119 1688 518 2108 1261
28 50 55 96 59 104 7 10 29 2 103 -37 280 -150 630 -265 930 -307 500 -70 922
13 1285 252 392 258 654 646 747 1106 20 97 23 142 22 327 0 184 -3 230 -23
320 -150 703 -679 1221 -1379 1352 -166 31 -420 31 -579 0 -308 -61 -556 -194
-769 -414 -123 -126 -191 -222 -272 -384 -98 -196 -160 -374 -271 -778 -34
-121 -62 -221 -64 -223 -2 -2 -27 39 -55 89 -144 262 -247 574 -291 883 -11
77 -23 158 -27 180 -3 22 -9 771 -13 1665 -8 1613 -8 1626 -29 1720 -86 380
-281 719 -581 1009 -242 234 -525 418 -868 565 -264 114 -442 155 -616 142
-178 -12 -296 -61 -547 -226 -341 -225 -664 -507 -908 -792 l-91 -108 -46 89
c-60 116 -183 303 -273 416 -202 252 -560 557 -715 609 -49 17 -153 20 -197 7z
m7146 -5130 c412 -99 702 -403 779 -817 23 -118 16 -316 -13 -429 -78 -298
-263 -529 -532 -665 -167 -84 -332 -116 -555 -107 -362 15 -672 105 -968 279
-37 22 -70 44 -73 49 -2 5 2 21 10 36 7 15 46 136 86 268 146 491 162 543 212
685 83 237 178 423 274 536 118 139 307 199 589 188 61 -2 146 -13 191 -23z"/>
</g>
</svg>
