<?xml version="1.0" standalone="no"?>
<!DOCTYPE svg PUBLIC "-//W3C//DTD SVG 20010904//EN"
 "http://www.w3.org/TR/2001/REC-SVG-20010904/DTD/svg10.dtd">
<svg version="1.0" xmlns="http://www.w3.org/2000/svg"
 width="600.000000pt" height="600.000000pt" viewBox="0 0 600.000000 600.000000"
 preserveAspectRatio="xMidYMid meet">
<metadata>
Created by potrace 1.16, written by Peter Selinger 2001-2019
</metadata>
<g transform="translate(0.000000,600.000000) scale(0.100000,-0.100000)"
fill="#000000" stroke="none">
<path d="M2380 5077 c-54 -27 -55 -164 -2 -242 32 -46 102 -92 152 -101 l35
-5 -28 18 c-31 20 -67 87 -67 124 0 24 23 67 44 81 22 16 71 7 108 -19 38 -26
123 -125 147 -171 21 -40 22 -18 2 39 -66 194 -167 289 -306 289 -33 0 -71 -6
-85 -13z"/>
<path d="M2100 5073 c-132 -12 -345 -58 -337 -72 2 -3 14 -30 28 -58 17 -37
28 -51 39 -47 78 29 204 56 302 66 111 11 118 13 118 34 0 12 3 36 6 53 l7 31
-64 -2 c-35 0 -80 -3 -99 -5z"/>
<path d="M1590 4937 c-90 -44 -190 -108 -210 -132 -12 -15 -10 -17 84 -97 l30
-25 62 52 c34 29 90 68 124 87 54 29 60 36 56 59 -6 29 -44 99 -55 99 -4 0
-45 -19 -91 -43z"/>
<path d="M1263 4697 c-92 -98 -196 -263 -171 -271 7 -3 38 -12 68 -21 30 -10
70 -26 88 -37 18 -11 35 -19 37 -16 2 2 24 44 49 94 25 49 62 112 82 139 l37
48 -54 49 c-84 75 -80 75 -136 15z"/>
<path d="M1026 4284 c-26 -80 -56 -210 -56 -244 0 -17 8 -18 83 -17 45 1 106
-2 135 -6 l52 -8 0 83 c0 46 7 108 15 138 14 51 13 56 -3 68 -31 25 -106 53
-153 59 l-47 5 -26 -78z"/>
<path d="M1005 3936 l-40 -12 1 -96 c1 -80 25 -234 41 -261 2 -4 29 15 59 42
62 55 154 104 229 123 28 7 51 13 53 14 2 1 -8 20 -23 42 -15 22 -37 67 -50
99 l-24 58 -103 2 c-59 1 -120 -3 -143 -11z"/>
<path d="M2583 3875 c-68 -21 -126 -60 -189 -127 -67 -72 -140 -196 -108 -184
45 17 161 46 186 46 22 0 33 11 63 61 50 82 141 178 190 200 l40 19 -70 -1
c-38 0 -89 -6 -112 -14z"/>
<path d="M2911 3879 c-69 -12 -164 -57 -220 -105 -46 -40 -121 -129 -121 -145
0 -5 51 -9 113 -9 l112 0 63 70 c75 83 135 127 216 156 57 20 59 22 31 27 -63
13 -142 15 -194 6z"/>
<path d="M3274 3851 c-134 -21 -243 -80 -356 -191 l-86 -85 -84 5 c-106 7
-254 -5 -327 -25 -117 -34 -200 -83 -286 -169 -91 -91 -143 -183 -172 -302 -9
-38 -17 -70 -17 -71 -1 0 -44 -6 -96 -12 -100 -12 -545 -77 -593 -87 -21 -4
-27 -11 -27 -32 1 -60 102 -179 132 -155 34 28 325 114 640 189 l117 28 16 42
c23 60 116 206 175 274 146 169 372 278 613 296 l95 7 47 56 c92 110 207 185
331 215 32 8 50 15 38 15 -12 1 -41 3 -65 5 -24 3 -67 1 -95 -3z"/>
<path d="M3445 3775 c-121 -27 -212 -80 -328 -193 l-78 -76 -87 3 c-195 6
-375 -62 -510 -192 -88 -85 -167 -214 -207 -337 -10 -30 -19 -56 -20 -58 -1
-1 -65 -20 -141 -42 -300 -84 -496 -164 -567 -232 -36 -34 -39 -41 -34 -74 7
-42 38 -80 73 -88 19 -5 46 7 116 50 188 116 442 231 627 284 60 18 85 30 89
43 2 10 20 50 38 88 147 306 406 485 746 515 l76 7 76 74 c58 56 95 83 162
115 83 40 91 42 202 46 l116 5 -48 24 c-51 26 -161 53 -211 52 -16 0 -57 -7
-90 -14z"/>
<path d="M1300 3680 c-76 -27 -156 -86 -212 -155 l-47 -58 31 -60 c17 -34 41
-78 55 -100 l24 -38 40 81 c53 105 142 196 238 242 39 18 70 35 70 38 0 12
-103 70 -123 70 -11 -1 -46 -10 -76 -20z"/>
<path d="M3940 3680 c-102 -8 -150 -18 -150 -31 0 -5 11 -27 25 -49 l25 -40
121 0 120 0 19 43 c11 23 20 52 20 65 0 25 -14 26 -180 12z"/>
<path d="M4725 3674 c-67 -16 -130 -50 -187 -102 l-39 -35 38 -25 c51 -35 161
-72 220 -74 26 -1 82 2 124 7 65 7 85 5 141 -14 117 -39 285 -133 476 -267
l94 -65 -33 47 c-60 88 -186 238 -250 300 -130 124 -255 199 -380 229 -78 18
-125 18 -204 -1z"/>
<path d="M4176 3649 c-35 -28 -58 -77 -45 -100 14 -27 67 -40 180 -46 l105 -6
33 42 c18 23 31 47 28 55 -9 22 -137 68 -207 73 -57 5 -69 2 -94 -18z"/>
<path d="M3602 3634 c-29 -7 -67 -21 -85 -30 -47 -24 -148 -98 -180 -132 l-28
-29 27 -7 c15 -4 47 -21 71 -38 l45 -30 21 20 c25 24 89 56 207 107 46 20 90
41 97 47 15 12 4 39 -35 81 -29 31 -58 33 -140 11z"/>
<path d="M1473 3565 c-82 -41 -157 -111 -206 -192 -40 -67 -73 -161 -61 -173
5 -4 58 -5 117 -2 l109 5 32 71 c46 98 114 187 180 233 30 21 55 40 55 43 1 5
-137 51 -150 50 -4 0 -38 -16 -76 -35z"/>
<path d="M1744 3517 c-63 -32 -158 -135 -197 -213 -53 -104 -53 -104 23 -125
36 -10 70 -18 76 -19 6 0 23 31 38 69 36 92 114 202 177 248 27 21 46 39 42
40 -4 1 -33 6 -64 11 -48 7 -63 6 -95 -11z"/>
<path d="M2074 3511 c-91 -5 -105 -9 -143 -36 -50 -34 -101 -91 -137 -152 -24
-42 -74 -164 -74 -182 0 -5 37 -24 82 -42 45 -19 85 -35 88 -37 3 -1 12 27 19
63 28 140 118 271 243 355 33 22 52 39 42 38 -11 -1 -64 -4 -120 -7z"/>
<path d="M4520 3443 c0 -40 27 -140 51 -190 37 -76 103 -139 192 -183 120 -58
215 -74 405 -68 93 4 158 10 165 17 8 8 2 11 -22 11 -58 0 -233 40 -306 71
-140 58 -235 164 -235 261 0 35 -2 38 -27 38 -24 0 -150 40 -205 64 -15 7 -18
3 -18 -21z"/>
<path d="M3042 3410 c-122 -17 -335 -163 -453 -310 -57 -71 -115 -185 -125
-247 -5 -36 -3 -42 30 -71 131 -115 383 -134 622 -48 l63 23 6 -31 c11 -52 53
-114 99 -145 95 -66 275 -96 471 -80 55 4 109 9 120 9 11 1 -22 12 -74 25
-268 69 -364 187 -276 341 59 101 215 149 363 110 72 -19 129 -55 185 -115 26
-28 49 -51 51 -51 10 0 -17 106 -38 147 -34 68 -122 146 -194 173 -75 29 -190
49 -277 50 l-70 0 -43 55 c-97 127 -274 190 -460 165z"/>
<path d="M1020 3147 c0 -32 32 -59 61 -53 56 13 235 25 379 27 160 1 169 6 64
33 -48 12 -113 16 -283 16 l-221 0 0 -23z"/>
<path d="M912 3129 c-59 -23 -135 -108 -152 -167 -7 -28 -6 -41 6 -60 23 -35
52 -24 98 36 23 29 58 64 78 77 64 43 73 90 22 113 -14 7 -26 12 -27 11 -1 0
-13 -4 -25 -10z"/>
<path d="M1231 3090 c-140 -8 -157 -14 -145 -55 4 -11 24 -38 45 -60 l39 -41
162 28 c90 15 237 37 328 48 91 12 172 24 180 27 8 3 -21 18 -64 34 -77 28
-85 29 -245 27 -91 0 -226 -4 -300 -8z"/>
<path d="M948 2973 c-14 -16 -34 -41 -44 -58 -10 -16 -32 -48 -49 -70 -44 -55
-48 -73 -26 -130 22 -59 44 -67 96 -35 41 25 140 139 162 186 44 91 -71 179
-139 107z"/>
<path d="M681 2853 c-28 -24 -89 -129 -101 -174 -13 -46 -4 -69 24 -69 29 0
34 5 98 81 85 100 93 124 58 159 -25 25 -51 25 -79 3z"/>
<path d="M1051 2743 c-69 -81 -101 -126 -101 -143 0 -18 16 -42 54 -79 45 -44
57 -51 72 -43 45 25 184 192 184 220 -1 29 -74 157 -92 160 -10 2 -52 -39
-117 -115z"/>
<path d="M2289 2749 c-161 -23 -304 -105 -381 -217 l-31 -45 22 -18 c64 -52
195 -49 306 5 63 31 275 164 300 187 5 6 -8 26 -35 54 -49 49 -62 52 -181 34z"/>
<path d="M748 2667 c-37 -31 -73 -91 -103 -170 -33 -88 -32 -120 2 -147 46
-36 72 -24 121 55 63 103 69 135 43 218 -12 37 -25 67 -29 67 -4 0 -19 -10
-34 -23z"/>
<path d="M526 2568 c-9 -12 -16 -32 -16 -43 0 -11 -7 -53 -17 -92 -9 -40 -13
-76 -10 -80 19 -19 127 125 127 168 0 28 -33 69 -55 69 -8 0 -21 -10 -29 -22z"/>
<path d="M882 2485 c-11 -14 -36 -76 -56 -138 -53 -172 -53 -162 -15 -177 72
-30 133 -7 145 55 3 18 23 58 45 90 21 32 39 67 39 78 0 26 -91 117 -118 117
-11 0 -29 -11 -40 -25z"/>
<path d="M1292 2416 c-124 -126 -125 -150 -4 -211 30 -14 55 -25 57 -23 25 32
175 253 175 259 0 7 -122 69 -135 69 -1 0 -43 -42 -93 -94z"/>
<path d="M1776 2258 c-106 -214 -137 -346 -92 -391 16 -16 187 -32 229 -21 29
7 29 7 47 154 14 110 45 265 65 320 20 57 28 53 -147 86 -25 5 -29 -1 -102
-148z"/>
<path d="M576 2281 c-19 -21 -36 -115 -36 -206 0 -156 41 -140 115 45 43 106
47 146 20 166 -27 20 -79 17 -99 -5z"/>
<path d="M1139 2203 c-27 -70 -59 -234 -59 -299 0 -77 9 -93 65 -114 57 -22
69 -10 112 107 22 60 46 132 53 161 14 61 10 69 -70 127 -67 49 -88 52 -101
18z"/>
<path d="M777 2099 c-36 -28 -48 -81 -50 -217 -1 -120 6 -166 26 -159 23 7 76
99 106 182 32 88 39 161 21 196 -14 26 -69 25 -103 -2z"/>
<path d="M1850 1795 c-25 -8 -72 -30 -105 -48 -70 -39 -78 -61 -46 -132 49
-110 281 -292 448 -351 49 -17 54 -17 86 -2 33 16 61 46 101 110 l17 27 -57
27 c-79 37 -186 145 -270 274 -78 117 -87 122 -174 95z"/>
<path d="M1063 1748 c-26 -33 -23 -169 9 -332 l11 -59 27 30 c17 19 33 56 44
99 19 78 35 212 28 232 -12 33 -100 55 -119 30z"/>
<path d="M2734 1511 c-79 -13 -176 -48 -243 -89 -78 -47 -161 -119 -161 -139
0 -25 112 -126 175 -157 32 -16 89 -33 127 -39 62 -10 78 -8 180 19 95 24 131
29 228 28 171 -2 358 -40 605 -123 65 -23 121 -41 124 -41 3 0 -37 43 -89 96
-231 233 -449 374 -665 429 -74 19 -212 27 -281 16z"/>
<path d="M2420 1114 c0 -26 77 -141 130 -194 104 -103 215 -159 386 -195 100
-21 318 -24 439 -5 l90 14 -85 8 c-274 25 -458 109 -547 249 l-38 59 -55 -6
c-67 -7 -180 16 -257 51 -60 27 -63 28 -63 19z"/>
</g>
</svg>
