<?xml version="1.0" standalone="no"?>
<!DOCTYPE svg PUBLIC "-//W3C//DTD SVG 20010904//EN"
 "http://www.w3.org/TR/2001/REC-SVG-20010904/DTD/svg10.dtd">
<svg version="1.0" xmlns="http://www.w3.org/2000/svg"
 width="348.000000pt" height="348.000000pt" viewBox="0 0 348.000000 348.000000"
 preserveAspectRatio="xMidYMid meet">
<metadata>
Created by potrace 1.16, written by Peter Selinger 2001-2019
</metadata>
<g transform="translate(0.000000,348.000000) scale(0.100000,-0.100000)"
fill="#000000" stroke="none">
<path d="M1785 3471 c-180 -30 -341 -116 -467 -250 -234 -248 -292 -610 -145
-911 18 -36 32 -69 32 -73 0 -4 -29 -18 -65 -30 -131 -44 -244 -136 -308 -248
-38 -67 -72 -192 -72 -263 1 -175 103 -354 262 -457 243 -156 570 -85 731 159
69 104 90 170 91 282 2 200 -82 351 -273 490 -184 133 -269 307 -258 525 6
123 31 200 99 301 83 124 200 207 343 244 282 72 575 -69 695 -335 37 -82 52
-149 52 -244 1 -101 -15 -167 -62 -261 -21 -41 -148 -318 -283 -615 -135 -297
-287 -630 -337 -740 -51 -110 -101 -229 -111 -265 -23 -80 -25 -232 -4 -314
55 -212 217 -378 430 -442 82 -25 248 -25 330 0 231 69 399 254 442 488 18
104 13 145 -26 182 -72 69 -181 13 -181 -92 0 -66 -37 -166 -85 -229 -146
-193 -419 -214 -590 -46 -86 85 -119 197 -102 353 9 87 23 121 482 1125 321
702 323 706 312 895 -4 58 -14 132 -23 165 -92 344 -406 598 -753 610 -58 2
-128 0 -156 -4z m-352 -1480 c108 -52 197 -183 197 -288 0 -116 -90 -248 -205
-303 -143 -67 -320 3 -406 162 -30 56 -34 71 -34 138 0 61 5 84 27 126 33 63
133 157 190 178 62 23 170 17 231 -13z"/>
</g>
</svg>
