<?xml version="1.0" standalone="no"?>
<!DOCTYPE svg PUBLIC "-//W3C//DTD SVG 20010904//EN"
 "http://www.w3.org/TR/2001/REC-SVG-20010904/DTD/svg10.dtd">
<svg version="1.0" xmlns="http://www.w3.org/2000/svg"
 width="348.000000pt" height="348.000000pt" viewBox="0 0 348.000000 348.000000"
 preserveAspectRatio="xMidYMid meet">
<metadata>
Created by potrace 1.16, written by Peter Selinger 2001-2019
</metadata>
<g transform="translate(0.000000,348.000000) scale(0.100000,-0.100000)"
fill="#000000" stroke="none">
<path d="M1662 3454 c-86 -43 -128 -138 -103 -232 16 -59 75 -118 134 -134
l47 -12 0 -148 c0 -140 -1 -148 -20 -148 -10 0 -77 18 -147 41 -260 82 -368
97 -451 59 -23 -10 -85 -60 -137 -110 -116 -110 -147 -130 -202 -130 -41 0
-43 1 -43 30 0 28 -3 30 -35 30 -28 0 -35 -4 -35 -20 0 -11 -2 -20 -5 -20 -14
0 -85 41 -114 66 -18 14 -33 25 -35 23 -2 -2 3 -24 10 -49 17 -56 62 -112 109
-134 30 -15 35 -22 35 -51 0 -35 0 -35 -47 -35 l-48 0 -181 -558 -182 -557
-108 -5 -109 -5 70 -70 c109 -109 245 -172 433 -200 246 -37 511 2 690 101 62
35 182 142 182 163 0 6 -35 11 -92 13 l-92 3 -121 375 c-66 206 -146 457 -178
558 l-59 182 -44 0 c-40 0 -44 2 -44 24 0 22 4 23 78 29 90 6 160 31 244 88
92 63 142 82 195 74 25 -4 113 -42 207 -90 102 -52 186 -88 224 -96 l60 -13
-6 -315 -5 -316 -58 -117 -59 -118 0 -370 0 -370 -165 0 -165 0 0 -67 0 -66
-130 -215 c-72 -118 -129 -216 -127 -218 2 -2 342 -3 754 -2 l751 3 -158 215
-159 215 -1 68 0 67 -145 0 -145 0 0 360 0 361 -65 136 -65 136 0 307 0 307
53 11 c28 7 130 51 225 99 155 79 179 88 227 87 43 0 64 -7 107 -34 174 -110
188 -116 296 -127 56 -5 62 -8 62 -29 0 -20 -6 -23 -46 -26 l-46 -3 -182 -557
-181 -558 -102 0 c-69 0 -103 -4 -103 -11 0 -21 119 -128 182 -163 146 -81
342 -121 548 -113 265 11 442 77 580 216 l65 66 -97 3 -97 3 -51 157 c-27 86
-107 337 -178 557 l-128 400 -47 3 c-44 3 -47 5 -47 32 0 23 6 30 34 40 63 20
145 124 146 182 0 15 -9 11 -49 -17 -42 -30 -109 -65 -126 -65 -3 0 -5 11 -5
25 0 22 -4 25 -35 25 -32 0 -35 -2 -35 -30 0 -25 -4 -30 -25 -30 -43 0 -86 28
-175 115 -115 111 -154 135 -228 142 -80 7 -158 -8 -344 -66 -86 -27 -170 -51
-185 -53 l-28 -3 -3 152 -3 151 32 7 c39 9 108 70 126 112 19 47 16 127 -7
172 -51 102 -164 137 -268 85z m-994 -1572 l2 -522 -190 0 c-104 0 -190 3
-190 7 0 4 18 61 39 128 192 590 294 901 298 908 3 4 12 7 21 5 16 -3 17 -49
20 -526z m272 16 c90 -282 165 -519 168 -525 3 -10 -37 -13 -182 -13 l-186 0
0 525 c0 499 1 525 18 525 15 0 45 -86 182 -512z m1830 -13 l0 -525 -191 0
c-149 0 -190 3 -186 13 5 13 226 692 297 910 34 105 44 127 61 127 19 0 19
-11 19 -525z m184 293 c41 -128 117 -365 169 -525 l94 -293 -188 0 -189 0 0
525 c0 515 0 525 20 525 16 0 30 -34 94 -232z"/>
</g>
</svg>
