<?xml version="1.0" standalone="no"?>
<!DOCTYPE svg PUBLIC "-//W3C//DTD SVG 20010904//EN"
 "http://www.w3.org/TR/2001/REC-SVG-20010904/DTD/svg10.dtd">
<svg version="1.0" xmlns="http://www.w3.org/2000/svg"
 width="900.000000pt" height="900.000000pt" viewBox="0 0 900.000000 900.000000"
 preserveAspectRatio="xMidYMid meet">
<metadata>
Created by potrace 1.16, written by Peter Selinger 2001-2019
</metadata>
<g transform="translate(0.000000,900.000000) scale(0.100000,-0.100000)"
fill="#000000" stroke="none">
<path d="M1926 7737 c10 -13 64 -78 119 -143 290 -344 527 -708 730 -1119 203
-410 333 -784 415 -1195 25 -125 60 -359 60 -401 l0 -29 -690 0 -690 0 0 -280
0 -280 695 0 696 0 -6 -77 c-43 -540 -140 -968 -332 -1453 -212 -537 -563
-1114 -941 -1547 l-73 -83 394 0 394 0 80 113 c508 711 864 1469 1028 2187 42
183 81 420 95 575 6 66 13 143 15 170 2 28 5 65 5 83 l0 32 654 0 654 0 6 -87
c57 -719 227 -1322 567 -2003 171 -342 369 -669 586 -967 l74 -103 391 0 390
0 -54 62 c-496 572 -890 1282 -1101 1984 -101 335 -158 644 -192 1042 l-6 72
655 0 656 0 0 280 0 280 -643 0 -643 0 8 88 c62 680 312 1369 742 2045 139
219 351 506 505 684 39 45 71 84 71 87 0 3 -154 6 -343 6 l-343 0 -91 -102
c-537 -607 -907 -1302 -1099 -2067 -44 -173 -97 -473 -109 -606 -3 -38 -8 -85
-11 -102 l-5 -33 -658 0 -659 0 -7 63 c-111 1026 -561 2022 -1257 2782 l-55
60 -348 3 -348 4 19 -25z"/>
</g>
</svg>
