<?xml version="1.0" standalone="no"?>
<!DOCTYPE svg PUBLIC "-//W3C//DTD SVG 20010904//EN"
 "http://www.w3.org/TR/2001/REC-SVG-20010904/DTD/svg10.dtd">
<svg version="1.0" xmlns="http://www.w3.org/2000/svg"
 width="900.000000pt" height="900.000000pt" viewBox="0 0 900.000000 900.000000"
 preserveAspectRatio="xMidYMid meet">
<metadata>
Created by potrace 1.16, written by Peter Selinger 2001-2019
</metadata>
<g transform="translate(0.000000,900.000000) scale(0.100000,-0.100000)"
fill="#000000" stroke="none">
<path d="M4220 7595 l0 -285 1347 0 1348 0 -1557 -1557 -1558 -1558 -565 565
-565 565 -200 -200 -200 -200 565 -565 565 -565 -1140 -1140 -1139 -1140 198
-197 197 -197 1140 1140 1139 1139 580 -580 580 -580 200 200 200 200 -580
580 -580 580 1558 1558 1557 1557 0 -1348 0 -1347 285 0 285 0 -2 1828 -3
1827 -1827 3 -1828 2 0 -285z"/>
</g>
</svg>
