<?xml version="1.0" standalone="no"?>
<!DOCTYPE svg PUBLIC "-//W3C//DTD SVG 20010904//EN"
 "http://www.w3.org/TR/2001/REC-SVG-20010904/DTD/svg10.dtd">
<svg version="1.0" xmlns="http://www.w3.org/2000/svg"
 width="900.000000pt" height="900.000000pt" viewBox="0 0 900.000000 900.000000"
 preserveAspectRatio="xMidYMid meet">
<metadata>
Created by potrace 1.16, written by Peter Selinger 2001-2019
</metadata>
<g transform="translate(0.000000,900.000000) scale(0.100000,-0.100000)"
fill="#000000" stroke="none">
<path d="M1410 7713 c0 -88 -3 -214 -6 -280 l-7 -120 149 -6 c245 -10 438 -52
599 -132 246 -121 359 -287 545 -805 146 -404 234 -580 383 -765 74 -92 240
-241 300 -269 8 -4 9 -8 1 -11 -6 -3 -57 -37 -114 -75 -536 -357 -892 -919
-987 -1556 -24 -163 -24 -475 0 -638 57 -380 216 -755 448 -1055 363 -471 899
-778 1493 -856 151 -19 421 -19 572 0 959 126 1726 840 1918 1785 164 811
-131 1647 -769 2175 -82 67 -265 198 -310 220 -6 3 -6 7 2 11 36 17 158 118
223 184 127 130 235 295 324 497 24 54 85 213 135 353 143 395 248 589 381
700 179 150 487 240 821 240 l92 0 -6 103 c-4 56 -7 183 -7 281 l0 179 -167
-6 c-571 -20 -1005 -211 -1277 -561 -139 -179 -217 -338 -363 -741 -138 -382
-207 -518 -327 -644 -194 -204 -486 -293 -956 -292 -611 0 -920 144 -1113 517
-54 105 -81 174 -189 469 -96 264 -156 402 -228 521 -209 349 -499 561 -909
665 -159 40 -297 58 -488 66 l-163 6 0 -160z m3422 -2682 c523 -113 953 -445
1184 -916 224 -459 228 -1001 10 -1460 -230 -483 -661 -820 -1199 -937 -88
-19 -133 -22 -327 -22 -210 0 -233 2 -348 27 -467 105 -845 373 -1095 777
-361 584 -319 1341 105 1902 151 200 354 366 593 486 132 66 248 106 397 136
172 36 162 35 383 31 155 -3 222 -8 297 -24z"/>
</g>
</svg>
