<?xml version="1.0" standalone="no"?>
<!DOCTYPE svg PUBLIC "-//W3C//DTD SVG 20010904//EN"
 "http://www.w3.org/TR/2001/REC-SVG-20010904/DTD/svg10.dtd">
<svg version="1.0" xmlns="http://www.w3.org/2000/svg"
 width="360.000000pt" height="360.000000pt" viewBox="0 0 360.000000 360.000000"
 preserveAspectRatio="xMidYMid meet">
<metadata>
Created by potrace 1.16, written by Peter Selinger 2001-2019
</metadata>
<g transform="translate(0.000000,360.000000) scale(0.100000,-0.100000)"
fill="#000000" stroke="none">
<path d="M1111 3240 c-54 -25 -192 -162 -251 -249 l-43 -64 -41 79 c-46 90
-98 163 -149 212 l-34 33 -71 -79 c-40 -44 -72 -83 -72 -87 0 -4 19 -29 43
-55 73 -81 130 -205 164 -355 14 -60 17 -186 20 -867 l4 -798 110 0 109 0 0
778 c0 734 1 782 19 833 42 123 132 267 224 357 l54 53 45 -51 c58 -66 131
-190 177 -299 l36 -86 3 -792 2 -793 115 0 115 0 0 783 c0 873 -4 820 71 971
48 96 97 170 150 228 l39 43 51 -55 c66 -72 150 -200 202 -308 l42 -87 6 -665
c5 -599 7 -671 23 -725 26 -87 79 -198 138 -289 60 -91 63 -84 -57 -142 -91
-44 -208 -74 -315 -80 -142 -9 -130 3 -130 -124 l0 -110 50 0 c27 0 99 7 160
15 167 24 302 69 427 146 36 21 67 39 70 39 2 0 46 -38 96 -83 82 -74 167
-141 274 -216 l33 -22 60 93 60 93 -26 20 c-15 11 -59 44 -98 73 -39 29 -108
87 -153 128 l-83 75 51 76 c114 169 175 360 200 629 29 304 -47 579 -201 734
-36 37 -86 76 -112 88 -78 36 -161 25 -215 -27 -12 -11 -23 -21 -25 -21 -2 0
-2 53 0 118 4 162 -13 237 -88 389 -71 142 -158 268 -247 357 -137 137 -246
141 -376 12 -55 -55 -127 -151 -167 -223 -13 -24 -26 -43 -29 -43 -3 0 -31 42
-62 93 -71 115 -164 218 -224 246 -56 26 -117 27 -174 1z m1629 -1247 c81
-169 92 -445 28 -698 -19 -76 -122 -305 -137 -305 -12 0 -100 152 -123 215
-21 55 -23 81 -26 295 -2 154 0 254 8 290 22 105 72 229 123 308 l22 33 41
-45 c23 -25 52 -67 64 -93z"/>
</g>
</svg>
